<?xml version="1.0" encoding="UTF-8" standalone="no"?>
<!DOCTYPE svg PUBLIC "-//W3C//DTD SVG 20010904//EN"
              "http://www.w3.org/TR/2001/REC-SVG-20010904/DTD/svg10.dtd">

<svg xmlns="http://www.w3.org/2000/svg"
     width="3.47222in" height="3.11111in"
     viewBox="0 0 250 224">
  <path id="Selection"
        fill="none" stroke="black" stroke-width="1"
        d="M 24.00,221.27
           C 24.00,221.27 7.00,218.21 7.00,218.21
             4.81,217.70 1.75,217.32 1.06,214.75
             0.50,212.66 2.30,208.11 3.00,206.00
             3.00,206.00 10.78,186.00 10.78,186.00
             19.35,167.85 29.03,151.19 42.28,136.00
             46.16,131.56 50.66,126.16 55.00,122.28
             58.09,119.53 65.94,113.19 67.69,109.91
             67.69,109.91 75.33,81.00 75.33,81.00
             82.18,60.40 91.65,40.50 104.63,23.00
             104.63,23.00 116.72,8.00 116.72,8.00
             118.45,6.02 121.40,2.15 124.00,1.49
             128.17,0.43 133.41,8.13 135.87,11.00
             145.05,21.72 153.92,34.37 160.25,47.00
             174.14,74.72 185.13,102.81 170.03,133.00
             167.58,137.91 163.48,143.92 159.83,148.00
             153.38,155.22 145.21,160.94 137.00,166.00
             149.17,163.72 167.31,150.70 175.83,141.91
             181.75,135.81 187.28,128.07 192.00,121.00
             198.94,124.28 207.61,135.76 212.60,142.00
             228.41,161.77 244.34,191.19 250.00,216.00
             238.90,220.65 218.19,222.72 206.00,223.01
             206.00,223.01 196.00,223.68 196.00,223.68
             196.00,223.68 188.00,223.00 188.00,223.00
             176.17,222.86 164.54,220.97 153.00,218.42
             127.32,212.76 108.59,204.85 94.45,181.00
             87.97,170.06 85.02,154.63 85.00,142.00
             84.99,136.34 86.22,126.44 85.00,122.00
             75.28,146.43 71.12,170.50 83.37,195.00
             88.86,205.98 93.70,209.16 100.00,218.00
             71.06,223.45 53.50,225.49 24.00,221.27 Z
           M 117.34,37.00
           C 112.50,44.12 108.62,50.28 104.75,58.00
             97.63,72.22 97.33,72.96 92.33,88.00
             91.14,91.60 88.78,98.33 89.18,102.00
             89.68,106.50 93.97,109.96 97.00,113.00
             107.43,123.45 112.78,127.65 128.00,126.96
             132.88,126.74 136.71,125.52 141.00,123.20
             144.33,121.40 146.78,119.47 149.38,116.71
             167.44,97.58 153.05,73.29 143.24,54.00
             140.21,48.03 136.42,42.53 132.66,37.00
             130.35,33.62 128.92,30.62 125.00,29.20
             121.08,30.62 119.65,33.62 117.34,37.00 Z" />
</svg>
